<svg t="1596964817545" class="icon" viewBox="0 0 1024 1024" version="1.1" xmlns="http://www.w3.org/2000/svg" p-id="1759" xmlns:xlink="http://www.w3.org/1999/xlink" width="528" height="528"><defs><style type="text/css"></style></defs><path d="M929.94 756H782a23.14 23.14 0 0 1 0-46.27l71.5 0.11v-0.07h22.21A23.24 23.24 0 0 0 899 686.52a23.24 23.24 0 0 0-23.24-23.24h-1.44a351.06 351.06 0 0 0 20.91-119.68c0-192.44-154.52-348.78-346.23-351.6H293a23.24 23.24 0 0 0-23.24 23.24A23.24 23.24 0 0 0 293 238.51h88.7a23.11 23.11 0 0 1 23.11 23.11 23.11 23.11 0 0 1-23.11 23.11H96a23.21 23.21 0 0 0 0 46.43h170.86A23.11 23.11 0 0 1 290 354.3a23.11 23.11 0 0 1-23.11 23.11H138.44a23.21 23.21 0 0 0 0 46.43h74.94a351 351 0 0 0-20.92 119.76c0 194.19 157.32 351.6 351.39 351.6q7.8 0 15.52-0.34a23.41 23.41 0 0 0 4 0.34h243a23.28 23.28 0 0 0 23.28-23.28 23.28 23.28 0 0 0-23.28-23.28H632.69a23.08 23.08 0 1 1 0-46.17h297.25a23.19 23.19 0 0 0 23.19-23.19A23.19 23.19 0 0 0 929.94 756z" fill="#E3E3E3" p-id="1760"></path><path d="M670.09 609.48l34.76-230.27a42.78 42.78 0 0 0-42.78-42.78h-198.3a7.6 7.6 0 0 0-7.58 7.58l-34.75 268.64a44.76 44.76 0 0 0 44.63 44.63h246.8" fill="#FFFFFF" p-id="1761"></path><path d="M712.87 661.28H466.06a48.68 48.68 0 0 1-48.63-48.62v-0.51l34.77-268.43a11.59 11.59 0 0 1 11.57-11.29h198.3a46.83 46.83 0 0 1 46.78 46.78v0.6L674 610.08l-7.91-1.19 34.71-230a38.82 38.82 0 0 0-38.78-38.49H463.77a3.58 3.58 0 0 0-3.58 3.58v0.51l-34.75 268.42a40.67 40.67 0 0 0 40.62 40.37h246.81z" fill="#848484" p-id="1762"></path><path d="M761 611.82a45.45 45.45 0 0 1-90.91 0z" fill="#FFFFFF" p-id="1763"></path><path d="M715.55 661.28a49.51 49.51 0 0 1-49.45-49.45v-4H765v4a49.51 49.51 0 0 1-49.45 49.45z m-41.26-45.45a41.46 41.46 0 0 0 82.52 0z" fill="#848484" p-id="1764"></path><path d="M662.07 336.43H426.15a21.39 21.39 0 0 0 0 42.78h193.14a42.78 42.78 0 0 1 42.78-42.78z" fill="#FFFFFF" p-id="1765"></path><path d="M623.29 383.21H426.15a25.39 25.39 0 1 1 0-50.78h235.92v8a38.82 38.82 0 0 0-38.78 38.78z m-197.14-42.78a17.39 17.39 0 1 0 0 34.78h189.31a46.81 46.81 0 0 1 20.47-34.78z" fill="#848484" p-id="1766"></path><path d="M471.5 487.5m-7.5 0a7.5 7.5 0 1 0 15 0 7.5 7.5 0 1 0-15 0Z" fill="#848484" p-id="1767"></path><path d="M626.5 627.5m-7.5 0a7.5 7.5 0 1 0 15 0 7.5 7.5 0 1 0-15 0Z" fill="#848484" p-id="1768"></path><path d="M634 628a3 3 0 0 1-1.16-5.77c33.71-14 51.57-29.08 51.63-43.47 0.09-19.8-32.33-33.87-32.65-34a3 3 0 0 1 2.36-5.52c1.49 0.63 36.4 15.81 36.3 39.55-0.08 17.24-18.69 33.72-55.32 49a3 3 0 0 1-1.16 0.21z" fill="#848484" p-id="1769"></path><path d="M328 595a31 31 0 0 0-30.45 25.18A19 19 0 1 0 291 657h37a31 31 0 0 0 0-62z" fill="#FFFFFF" p-id="1770"></path><path d="M328 661h-37a23 23 0 0 1 0-46 22.49 22.49 0 0 1 3.67 0.3A35 35 0 1 1 328 661z m-37-38a15 15 0 0 0 0 30h37a27 27 0 1 0-26.52-32.07l-0.88 4.64-4.43-1.63A14.92 14.92 0 0 0 291 623z" fill="#848484" p-id="1771"></path><path d="M379 657c0-14.36-10.75-26-24-26s-24 11.64-24 26z" fill="#FFFFFF" p-id="1772"></path><path d="M383 661h-56v-4c0-16.54 12.56-30 28-30s28 13.46 28 30z m-47.67-8h39.34c-1.71-10.23-9.88-18-19.67-18s-18 7.77-19.67 18z" fill="#848484" p-id="1773"></path><path d="M726 661H298.83a4 4 0 0 1 0-8H726a4 4 0 0 1 0 8zM263.83 661h-54.16a4 4 0 0 1 0-8h54.17a4 4 0 1 1 0 8zM196.17 661H185a4 4 0 0 1 0-8h11.17a4 4 0 0 1 0 8zM681 693H572a4 4 0 0 1 0-8h109a4 4 0 0 1 0 8zM540.33 693H303a4 4 0 0 1 0-8h237.33a4 4 0 0 1 0 8zM691 728H502.33a4 4 0 1 1 0-8H691a4 4 0 0 1 0 8zM475.33 728H443a4 4 0 0 1 0-8h32.33a4 4 0 1 1 0 8z" fill="#848484" p-id="1774"></path><path d="M657 154h-15v-15a5 5 0 0 0-10 0v15h-15a5 5 0 0 0 0 10h15v15a5 5 0 0 0 10 0v-15h15a5 5 0 0 0 0-10zM121.38 465.07l-8.33-8.33 8.33-8.33a3.92 3.92 0 1 0-5.55-5.55l-8.33 8.33-8.33-8.33a3.92 3.92 0 0 0-5.55 5.55l8.33 8.33-8.33 8.33a3.92 3.92 0 0 0 5.55 5.55l8.33-8.33 8.33 8.33a3.92 3.92 0 0 0 5.55-5.55z" fill="#E3E3E3" p-id="1775"></path><path d="M274.61 549.32L264 559.93l-10.61-10.61a5 5 0 1 0-7.07 7.07L256.93 567l-10.61 10.61a5 5 0 1 0 7.07 7.07L264 574.07l10.61 10.61a5 5 0 1 0 7.07-7.07L271.07 567l10.61-10.61a5 5 0 1 0-7.07-7.07z" fill="#FFFFFF" p-id="1776"></path><path d="M833 268m-21 0a21 21 0 1 0 42 0 21 21 0 1 0-42 0Z" fill="#E3E3E3" p-id="1777"></path><path d="M808 548a22 22 0 1 1 22-22 22 22 0 0 1-22 22z m0-34a12 12 0 1 0 12 12 12 12 0 0 0-12-12z" fill="#FFFFFF" p-id="1778"></path><path d="M479 456m4.99 0l38.14 0q4.99 0 4.99 4.99l0 0.52q0 4.99-4.99 4.99l-38.14 0q-4.99 0-4.99-4.99l0-0.52q0-4.99 4.99-4.99Z" fill="#848484" p-id="1779"></path><path d="M590.56 456m4.73 0l37.98 0q4.73 0 4.73 4.73l0 0.49q0 4.73-4.73 4.73l-37.98 0q-4.73 0-4.73-4.73l0-0.49q0-4.73 4.73-4.73Z" fill="#848484" p-id="1780"></path><path d="M481.34 465.95m5.26 0l40.14 0q5.26 0 5.26 5.26l0 0.53q0 5.26-5.26 5.26l-40.14 0q-5.26 0-5.26-5.26l0-0.53q0-5.26 5.26-5.26Z" fill="#848484" p-id="1781"></path><path d="M587 465.95m4.73 0l37.98 0q4.73 0 4.73 4.73l0 0.49q0 4.73-4.73 4.73l-37.98 0q-4.73 0-4.73-4.73l0-0.49q0-4.73 4.73-4.73Z" fill="#848484" p-id="1782"></path><path d="M597 567c-4 0-7-3.9-9.88-7.67-1.41-1.83-4-5.25-5.13-5.33-0.76 0.14-2.55 2.63-3.61 4.11-2.84 4-6.37 8.89-12.38 8.89-5.82 0-10.45-5.22-14.54-9.82-1.77-2-4.44-5-5.51-5.19-1.26 0.21-4.79 4.28-6.68 6.47-4 4.58-7.4 8.54-11.27 8.54-4 0-6.92-4.53-10.26-9.77-1.57-2.46-5.25-8.23-6.74-8.23s-5.25 5.24-7.07 7.76C500.13 562 496.53 567 492 567c-7.15 0-14.45-8.1-15.26-9a3 3 0 0 1 4.51-4c2.37 2.7 7.38 7 10.74 7 1.47 0 5.25-5.24 7.07-7.76C502.87 548 506.47 543 511 543c4.78 0 8.19 5.34 11.8 11 1.53 2.39 4.05 6.36 5.3 7 1.37-0.37 4.79-4.31 6.64-6.45 4-4.58 7.4-8.54 11.27-8.54 3.56 0 6.52 3.34 9.95 7.2 3.09 3.48 6.93 7.8 10.05 7.8 2.93 0 5.26-3.25 7.51-6.38S578.25 548 582 548c4 0 7 3.9 9.88 7.67 1.41 1.83 4 5.25 5.13 5.33 2.87 0 6.37-3.57 7.1-4.78a3 3 0 0 1 5.9 0.78c-0.01 3.06-6.67 10-13.01 10z m7-10zM637 489a10 10 0 1 1 10-10 10 10 0 0 1-10 10z m0-16a6 6 0 1 0 6 6 6 6 0 0 0-6-6z" fill="#848484" p-id="1783"></path><path d="M476 471m6.5 0l0 0q6.5 0 6.5 6.5l0 0q0 6.5-6.5 6.5l0 0q-6.5 0-6.5-6.5l0 0q0-6.5 6.5-6.5Z" fill="#FFFFFF" p-id="1784"></path><path d="M482.5 486a8.5 8.5 0 1 1 8.5-8.5 8.51 8.51 0 0 1-8.5 8.5z m0-13a4.5 4.5 0 1 0 4.5 4.5 4.5 4.5 0 0 0-4.5-4.5zM430.37 547.6a4 4 0 0 1-1.67-0.37c-2.47-1.14-24.1-11.55-22.65-27.13 1.3-13.94 20.59-25.39 59-35a4 4 0 1 1 1.94 7.76c-44.85 11.21-52.43 22.34-53 28-0.79 8.48 13.1 16.85 18 19.12a4 4 0 0 1-1.67 7.63z" fill="#848484" p-id="1785"></path></svg>